<svg xmlns="http://www.w3.org/2000/svg" xmlns:xlink="http://www.w3.org/1999/xlink" width="637" height="906" viewBox="0 0 637 906">
  <defs>
    <clipPath id="clip-editor">
      <rect width="637" height="906"/>
    </clipPath>
  </defs>
  <g id="editor" clip-path="url(#clip-editor)">
    <rect width="637" height="906" fill="#fff"/>
    <g id="Component_1_4" data-name="Component 1 – 4">
      <g id="Rectangle_1" data-name="Rectangle 1" transform="translate(0 32)" fill="#fff" stroke="#707070" stroke-width="1">
        <rect width="637" height="874" stroke="none"/>
        <rect x="0.5" y="0.5" width="636" height="873" fill="none"/>
      </g>
      <g id="Rectangle_3" data-name="Rectangle 3" fill="#fff" stroke="#707070" stroke-width="1">
        <rect width="637" height="33" stroke="none"/>
        <rect x="0.5" y="0.5" width="636" height="32" fill="none"/>
      </g>
    </g>
    <g id="Component_3_4" data-name="Component 3 – 4" transform="translate(605 4)">
      <g id="Ellipse_1" data-name="Ellipse 1" fill="rgba(112,112,112,0)" stroke="#707070" stroke-width="1">
        <circle cx="12.5" cy="12.5" r="12.5" stroke="none"/>
        <circle cx="12.5" cy="12.5" r="12" fill="none"/>
      </g>
      <line id="Line_1" data-name="Line 1" y1="12" x2="12" transform="translate(6.5 6.5)" fill="none" stroke="#707070" stroke-width="1"/>
      <line id="Line_2" data-name="Line 2" x2="12" y2="12" transform="translate(6.5 6.5)" fill="none" stroke="#707070" stroke-width="1"/>
    </g>
    <g id="Component_2_4" data-name="Component 2 – 4" transform="translate(575 4)">
      <g id="Ellipse_2" data-name="Ellipse 2" fill="#707070" stroke="#707070" stroke-width="1">
        <circle cx="12.5" cy="12.5" r="12.5" stroke="none"/>
        <circle cx="12.5" cy="12.5" r="12" fill="none"/>
      </g>
      <g id="Rectangle_5" data-name="Rectangle 5" transform="translate(9 5)" fill="#fff" stroke="#707070" stroke-width="1">
        <rect width="11" height="11" stroke="none"/>
        <rect x="0.5" y="0.5" width="10" height="10" fill="none"/>
      </g>
      <g id="Rectangle_9" data-name="Rectangle 9" transform="translate(5 9)" fill="#fff" stroke="#707070" stroke-width="1">
        <rect width="11" height="11" stroke="none"/>
        <rect x="0.5" y="0.5" width="10" height="10" fill="none"/>
      </g>
    </g>
    <g id="Component_4_4" data-name="Component 4 – 4" transform="translate(545 4)">
      <g id="Ellipse_3" data-name="Ellipse 3" fill="#707070" stroke="#707070" stroke-width="1">
        <circle cx="12.5" cy="12.5" r="12.5" stroke="none"/>
        <circle cx="12.5" cy="12.5" r="12" fill="none"/>
      </g>
      <line id="Line_3" data-name="Line 3" x2="16" transform="translate(4.5 17.5)" fill="none" stroke="#fff" stroke-width="1"/>
    </g>
    <g id="Rectangle_13" data-name="Rectangle 13" transform="translate(20 662)" fill="#e7e6e6" stroke="#707070" stroke-width="1">
      <rect width="32" height="32" stroke="none"/>
      <rect x="0.5" y="0.5" width="31" height="31" fill="none"/>
    </g>
    <g id="Rectangle_14" data-name="Rectangle 14" transform="translate(67 662)" fill="#fff" stroke="#707070" stroke-width="1">
      <rect width="32" height="32" stroke="none"/>
      <rect x="0.5" y="0.5" width="31" height="31" fill="none"/>
    </g>
    <g id="Rectangle_16" data-name="Rectangle 16" transform="translate(161 662)" fill="#fff" stroke="#707070" stroke-width="1">
      <rect width="32" height="32" stroke="none"/>
      <rect x="0.5" y="0.5" width="31" height="31" fill="none"/>
    </g>
    <g id="Group_7" data-name="Group 7" transform="translate(-1271.029 -388.519) rotate(13)">
      <g id="Polygon_1" data-name="Polygon 1" transform="translate(1499.747 742.884) rotate(-45)" fill="#9a9a9a">
        <path d="M 13.33446407318115 13.64347839355469 L 0.8090142011642456 13.64347839355469 L 7.071739196777344 1.118028283119202 L 13.33446407318115 13.64347839355469 Z" stroke="none"/>
        <path d="M 7.071739196777344 2.236067771911621 L 1.618034362792969 13.14347839355469 L 12.52544403076172 13.14347839355469 L 7.071739196777344 2.236067771911621 M 7.071739196777344 -1.9073486328125e-06 L 14.143479347229 14.14347839355469 L -9.5367431640625e-07 14.14347839355469 L 7.071739196777344 -1.9073486328125e-06 Z" stroke="none" fill="#9a9a9a"/>
      </g>
      <g id="Rectangle_17" data-name="Rectangle 17" transform="translate(1513.218 748.884) rotate(-45)" fill="#9a9a9a" stroke="#9a9a9a" stroke-width="1">
        <rect width="3.722" height="8.188" stroke="none"/>
        <rect x="0.5" y="0.5" width="2.722" height="7.188" fill="none"/>
      </g>
    </g>
    <g id="Rectangle_19" data-name="Rectangle 19" transform="translate(114 662)" fill="#fff" stroke="#707070" stroke-width="1">
      <rect width="32" height="32" stroke="none"/>
      <rect x="0.5" y="0.5" width="31" height="31" fill="none"/>
    </g>
    <g id="Group_2" data-name="Group 2" transform="translate(-1482 -68)">
      <g id="Rectangle_20" data-name="Rectangle 20" transform="translate(1605 739)" fill="#fff" stroke="#707070" stroke-width="1">
        <rect width="14" height="6" stroke="none"/>
        <rect x="0.5" y="0.5" width="13" height="5" fill="none"/>
      </g>
      <g id="Rectangle_21" data-name="Rectangle 21" transform="translate(1605 744)" fill="#fff" stroke="#707070" stroke-width="1">
        <rect width="14" height="6" stroke="none"/>
        <rect x="0.5" y="0.5" width="13" height="5" fill="none"/>
      </g>
      <line id="Line_8" data-name="Line 8" y2="4" transform="translate(1605.5 749.5)" fill="none" stroke="#707070" stroke-width="1"/>
      <line id="Line_9" data-name="Line 9" y2="4" transform="translate(1618.5 749.5)" fill="none" stroke="#707070" stroke-width="1"/>
    </g>
    <g id="Group_3" data-name="Group 3" transform="translate(-1482 -72)">
      <line id="Line_10" data-name="Line 10" y2="16" transform="translate(1655.5 742.5)" fill="none" stroke="#707070" stroke-width="1"/>
      <path id="Polygon_2" data-name="Polygon 2" d="M4,0,8,9H0Z" transform="translate(1664.5 742.5) rotate(90)" fill="#fff" stroke="#707070" stroke-width="1"/>
    </g>
    <g id="Rectangle_22" data-name="Rectangle 22" transform="translate(208 662)" fill="#fff" stroke="#707070" stroke-width="1">
      <rect width="32" height="32" stroke="none"/>
      <rect x="0.5" y="0.5" width="31" height="31" fill="none"/>
    </g>
    <g id="Group_4" data-name="Group 4" transform="translate(-1482.906 -73)">
      <g id="Rectangle_23" data-name="Rectangle 23" transform="translate(1699.906 745)" fill="#fff" stroke="#707070" stroke-width="1">
        <rect width="14" height="15" stroke="none"/>
        <rect x="0.5" y="0.5" width="13" height="14" fill="none"/>
      </g>
      <g id="Rectangle_24" data-name="Rectangle 24" transform="translate(1703.906 743)" fill="#fff" stroke="#707070" stroke-width="1">
        <rect width="6" height="3" stroke="none"/>
        <rect x="0.5" y="0.5" width="5" height="2" fill="none"/>
      </g>
    </g>
    <g id="Group_5" data-name="Group 5" transform="translate(-1482 -70)">
      <g id="Group_1" data-name="Group 1" transform="translate(0 4)">
        <g id="Rectangle_18" data-name="Rectangle 18" transform="translate(1553 741)" fill="#fff" stroke="#707070" stroke-width="1">
          <rect width="24" height="13" stroke="none"/>
          <rect x="0.5" y="0.5" width="23" height="12" fill="none"/>
        </g>
        <g id="Ellipse_4" data-name="Ellipse 4" transform="translate(1558 745)" fill="#fff" stroke="#707070" stroke-width="1">
          <circle cx="2" cy="2" r="2" stroke="none"/>
          <circle cx="2" cy="2" r="1.5" fill="none"/>
        </g>
        <g id="Ellipse_5" data-name="Ellipse 5" transform="translate(1568 745)" fill="#fff" stroke="#707070" stroke-width="1">
          <circle cx="2" cy="2" r="2" stroke="none"/>
          <circle cx="2" cy="2" r="1.5" fill="none"/>
        </g>
        <path id="Path_1" data-name="Path 1" d="M0,0A8.293,8.293,0,0,0,3.406.881,9.749,9.749,0,0,0,7,0" transform="translate(1561.5 750.5)" fill="none" stroke="#707070" stroke-width="1"/>
      </g>
      <line id="Line_11" data-name="Line 11" y1="5" transform="translate(1565 740)" fill="none" stroke="#707070" stroke-linecap="square" stroke-width="1"/>
      <g id="Ellipse_6" data-name="Ellipse 6" transform="translate(1563.5 738)" fill="#fff" stroke="#707070" stroke-width="1">
        <circle cx="1.5" cy="1.5" r="1.5" stroke="none"/>
        <circle cx="1.5" cy="1.5" r="1" fill="none"/>
      </g>
    </g>
    <g id="Rectangle_25" data-name="Rectangle 25" transform="translate(255 662)" fill="#fff" stroke="#707070" stroke-width="1">
      <rect width="32" height="32" stroke="none"/>
      <rect x="0.5" y="0.5" width="31" height="31" fill="none"/>
    </g>
    <g id="Group_6" data-name="Group 6" transform="translate(-1481 -74)">
      <g id="Rectangle_26" data-name="Rectangle 26" transform="translate(1749 741)" fill="#fff" stroke="#707070" stroke-width="1">
        <rect width="10" height="10" stroke="none"/>
        <rect x="0.5" y="0.5" width="9" height="9" fill="none"/>
      </g>
      <g id="Polygon_3" data-name="Polygon 3" transform="translate(1740 747)" fill="#fff">
        <path d="M 11.19098472595215 11.5 L 0.8090149760246277 11.5 L 6 1.118029952049255 L 11.19098472595215 11.5 Z" stroke="none"/>
        <path d="M 6 2.236069679260254 L 1.618035316467285 11 L 10.38196468353271 11 L 6 2.236069679260254 M 6 0 L 12 12 L 0 12 L 6 0 Z" stroke="none" fill="#707070"/>
      </g>
      <g id="Ellipse_7" data-name="Ellipse 7" transform="translate(1753 752)" fill="#fff" stroke="#707070" stroke-width="1">
        <circle cx="6" cy="6" r="6" stroke="none"/>
        <circle cx="6" cy="6" r="5.5" fill="none"/>
      </g>
    </g>
    <line id="Line_12" data-name="Line 12" x2="13" transform="translate(217.5 675.5)" fill="none" stroke="#707070" stroke-width="1"/>
    <line id="Line_13" data-name="Line 13" y2="6" transform="translate(224 678)" fill="none" stroke="#707070" stroke-width="1"/>
    <line id="Line_14" data-name="Line 14" x2="6" transform="translate(221 681)" fill="none" stroke="#707070" stroke-width="1"/>
    <g id="Rectangle_29" data-name="Rectangle 29" transform="translate(541 662)" fill="#fff" stroke="#707070" stroke-width="1">
      <rect width="32" height="32" stroke="none"/>
      <rect x="0.5" y="0.5" width="31" height="31" fill="none"/>
    </g>
    <g id="Group_8" data-name="Group 8" transform="translate(-1240 -166)">
      <path id="Path_2" data-name="Path 2" d="M1796.7,853.331s11.012-9.488,8.8-15.1-9.7-4.294-13.436-.762" fill="none" stroke="#707070" stroke-width="1"/>
      <g id="Polygon_4" data-name="Polygon 4" transform="matrix(-0.695, -0.719, 0.719, -0.695, 1788.359, 844.577)" fill="#fff">
        <path d="M 4.31990385055542 7.5 L 0.6800962686538696 7.5 L 2.5 1.676308035850525 L 4.31990385055542 7.5 Z" stroke="none"/>
        <path d="M 2.5 3.352605819702148 L 1.360189437866211 7 L 3.639810562133789 7 L 2.5 3.352605819702148 M 2.5 0 L 5 8 L 0 8 L 2.5 0 Z" stroke="none" fill="#707070"/>
      </g>
    </g>
    <g id="Group_9" data-name="Group 9" transform="translate(-1240 -166)">
      <path id="Path_2-2" data-name="Path 2" d="M1796.7,853.331s11.012-9.488,8.8-15.1-9.7-4.294-13.436-.762" fill="none" stroke="#707070" stroke-width="1"/>
      <g id="Polygon_4-2" data-name="Polygon 4" transform="matrix(-0.695, -0.719, 0.719, -0.695, 1788.359, 844.577)" fill="#707070">
        <path d="M 4.31990385055542 7.5 L 0.6800962686538696 7.5 L 2.5 1.676308035850525 L 4.31990385055542 7.5 Z" stroke="none"/>
        <path d="M 2.5 3.352605819702148 L 1.360189437866211 7 L 3.639810562133789 7 L 2.5 3.352605819702148 M 2.5 0 L 5 8 L 0 8 L 2.5 0 Z" stroke="none" fill="#707070"/>
      </g>
    </g>
    <g id="Rectangle_30" data-name="Rectangle 30" transform="translate(588 662)" fill="#fff" stroke="#707070" stroke-width="1">
      <rect width="32" height="32" stroke="none"/>
      <rect x="0.5" y="0.5" width="31" height="31" fill="none"/>
    </g>
    <g id="Group_10" data-name="Group 10" transform="translate(594.886 668.42)">
      <path id="Path_2-3" data-name="Path 2" d="M1801.147,853.331s-11.012-9.488-8.8-15.1,9.7-4.294,13.436-.762" transform="translate(-1792.057 -834.42)" fill="none" stroke="#707070" stroke-width="1"/>
      <g id="Polygon_4-3" data-name="Polygon 4" transform="matrix(-0.695, 0.719, -0.719, -0.695, 20.902, 6.56)" fill="#707070">
        <path d="M 4.31990385055542 7.5 L 0.6800965070724487 7.5 L 2.500000238418579 1.676308035850525 L 4.31990385055542 7.5 Z" stroke="none"/>
        <path d="M 2.500000238418579 3.352605819702148 L 1.36018967628479 7 L 3.639811038970947 7 L 2.500000238418579 3.352605819702148 M 2.500000238418579 0 L 5 8 L 4.76837158203125e-07 8 L 2.500000238418579 0 Z" stroke="none" fill="#707070"/>
      </g>
    </g>
    <text id="Editor-2" data-name="Editor" transform="translate(11 23)" fill="#707070" font-size="15" font-family="SegoeUI-Semibold, Segoe UI" font-weight="600"><tspan x="0" y="0">Editor</tspan></text>
    <g id="Group_18" data-name="Group 18">
      <g id="Rectangle_43" data-name="Rectangle 43" transform="translate(20 48)" fill="#fff" stroke="#707070" stroke-width="1">
        <rect width="100" height="100" stroke="none"/>
        <rect x="0.5" y="0.5" width="99" height="99" fill="none"/>
      </g>
      <g id="Rectangle_45" data-name="Rectangle 45" transform="translate(120 48)" fill="#fff" stroke="#707070" stroke-width="1">
        <rect width="100" height="100" stroke="none"/>
        <rect x="0.5" y="0.5" width="99" height="99" fill="none"/>
      </g>
      <g id="Rectangle_46" data-name="Rectangle 46" transform="translate(220 48)" fill="#fff" stroke="#707070" stroke-width="1">
        <rect width="100" height="100" stroke="none"/>
        <rect x="0.5" y="0.5" width="99" height="99" fill="none"/>
      </g>
      <g id="Rectangle_47" data-name="Rectangle 47" transform="translate(320 48)" fill="#fff" stroke="#707070" stroke-width="1">
        <rect width="100" height="100" stroke="none"/>
        <rect x="0.5" y="0.5" width="99" height="99" fill="none"/>
      </g>
      <g id="Rectangle_48" data-name="Rectangle 48" transform="translate(420 48)" fill="#fff" stroke="#707070" stroke-width="1">
        <rect width="100" height="100" stroke="none"/>
        <rect x="0.5" y="0.5" width="99" height="99" fill="none"/>
      </g>
      <g id="Rectangle_49" data-name="Rectangle 49" transform="translate(520 48)" fill="#fff" stroke="#707070" stroke-width="1">
        <rect width="100" height="100" stroke="none"/>
        <rect x="0.5" y="0.5" width="99" height="99" fill="none"/>
      </g>
    </g>
    <g id="Group_19" data-name="Group 19" transform="translate(0 100)">
      <g id="Rectangle_43-2" data-name="Rectangle 43" transform="translate(20 48)" fill="#fff" stroke="#707070" stroke-width="1">
        <rect width="100" height="100" stroke="none"/>
        <rect x="0.5" y="0.5" width="99" height="99" fill="none"/>
      </g>
      <g id="Rectangle_45-2" data-name="Rectangle 45" transform="translate(120 48)" fill="#e7e6e6" stroke="#707070" stroke-width="1">
        <rect width="100" height="100" stroke="none"/>
        <rect x="0.5" y="0.5" width="99" height="99" fill="none"/>
      </g>
      <g id="Rectangle_46-2" data-name="Rectangle 46" transform="translate(220 48)" fill="#fff" stroke="#707070" stroke-width="1">
        <rect width="100" height="100" stroke="none"/>
        <rect x="0.5" y="0.5" width="99" height="99" fill="none"/>
      </g>
      <g id="Rectangle_47-2" data-name="Rectangle 47" transform="translate(320 48)" fill="#fff" stroke="#707070" stroke-width="1">
        <rect width="100" height="100" stroke="none"/>
        <rect x="0.5" y="0.5" width="99" height="99" fill="none"/>
      </g>
      <g id="Rectangle_48-2" data-name="Rectangle 48" transform="translate(420 48)" fill="#e7e6e6" stroke="#707070" stroke-width="1">
        <rect width="100" height="100" stroke="none"/>
        <rect x="0.5" y="0.5" width="99" height="99" fill="none"/>
      </g>
      <g id="Rectangle_49-2" data-name="Rectangle 49" transform="translate(520 48)" fill="#fff" stroke="#707070" stroke-width="1">
        <rect width="100" height="100" stroke="none"/>
        <rect x="0.5" y="0.5" width="99" height="99" fill="none"/>
      </g>
      <text id="D3" transform="translate(259 307)" fill="#707070" font-size="30" font-family="SegoeUI-Semibold, Segoe UI" font-weight="600"><tspan x="0" y="0">D</tspan><tspan y="0" font-size="17.499" baseline-shift="-9.999000313881634">3</tspan></text>
    </g>
    <g id="Group_20" data-name="Group 20" transform="translate(0 200)">
      <g id="Rectangle_43-3" data-name="Rectangle 43" transform="translate(20 48)" fill="#fff" stroke="#707070" stroke-width="1">
        <rect width="100" height="100" stroke="none"/>
        <rect x="0.5" y="0.5" width="99" height="99" fill="none"/>
      </g>
      <g id="Rectangle_45-3" data-name="Rectangle 45" transform="translate(120 48)" fill="#e7e6e6" stroke="#707070" stroke-width="1">
        <rect width="100" height="100" stroke="none"/>
        <rect x="0.5" y="0.5" width="99" height="99" fill="none"/>
      </g>
      <g id="Rectangle_46-3" data-name="Rectangle 46" transform="translate(220 48)" fill="#85bdf1" stroke="#707070" stroke-width="1">
        <rect width="100" height="100" stroke="none"/>
        <rect x="0.5" y="0.5" width="99" height="99" fill="none"/>
      </g>
      <g id="Rectangle_47-3" data-name="Rectangle 47" transform="translate(320 48)" fill="#85bdf1" stroke="#707070" stroke-width="1">
        <rect width="100" height="100" stroke="none"/>
        <rect x="0.5" y="0.5" width="99" height="99" fill="none"/>
      </g>
      <g id="Rectangle_48-3" data-name="Rectangle 48" transform="translate(420 48)" fill="#e7e6e6" stroke="#707070" stroke-width="1">
        <rect width="100" height="100" stroke="none"/>
        <rect x="0.5" y="0.5" width="99" height="99" fill="none"/>
      </g>
      <g id="Rectangle_49-3" data-name="Rectangle 49" transform="translate(520 48)" fill="#fff" stroke="#707070" stroke-width="1">
        <rect width="100" height="100" stroke="none"/>
        <rect x="0.5" y="0.5" width="99" height="99" fill="none"/>
      </g>
    </g>
    <g id="Group_21" data-name="Group 21" transform="translate(0 300)">
      <g id="Rectangle_43-4" data-name="Rectangle 43" transform="translate(20 48)" fill="#fff" stroke="#707070" stroke-width="1">
        <rect width="100" height="100" stroke="none"/>
        <rect x="0.5" y="0.5" width="99" height="99" fill="none"/>
      </g>
      <g id="Rectangle_45-4" data-name="Rectangle 45" transform="translate(120 48)" fill="#e7e6e6" stroke="#707070" stroke-width="1">
        <rect width="100" height="100" stroke="none"/>
        <rect x="0.5" y="0.5" width="99" height="99" fill="none"/>
      </g>
      <g id="Rectangle_46-4" data-name="Rectangle 46" transform="translate(220 48)" fill="#85bdf1" stroke="#707070" stroke-width="1">
        <rect width="100" height="100" stroke="none"/>
        <rect x="0.5" y="0.5" width="99" height="99" fill="none"/>
      </g>
      <g id="Rectangle_47-4" data-name="Rectangle 47" transform="translate(320 48)" fill="#85bdf1" stroke="#707070" stroke-width="1">
        <rect width="100" height="100" stroke="none"/>
        <rect x="0.5" y="0.5" width="99" height="99" fill="none"/>
      </g>
      <g id="Rectangle_48-4" data-name="Rectangle 48" transform="translate(420 48)" fill="#e7e6e6" stroke="#707070" stroke-width="1">
        <rect width="100" height="100" stroke="none"/>
        <rect x="0.5" y="0.5" width="99" height="99" fill="none"/>
      </g>
      <g id="Rectangle_49-4" data-name="Rectangle 49" transform="translate(520 48)" fill="#fff" stroke="#707070" stroke-width="1">
        <rect width="100" height="100" stroke="none"/>
        <rect x="0.5" y="0.5" width="99" height="99" fill="none"/>
      </g>
    </g>
    <g id="Group_22" data-name="Group 22" transform="translate(0 400)">
      <g id="Rectangle_43-5" data-name="Rectangle 43" transform="translate(20 48)" fill="#fff" stroke="#707070" stroke-width="1">
        <rect width="100" height="100" stroke="none"/>
        <rect x="0.5" y="0.5" width="99" height="99" fill="none"/>
      </g>
      <g id="Rectangle_45-5" data-name="Rectangle 45" transform="translate(120 48)" fill="#e7e6e6" stroke="#707070" stroke-width="1">
        <rect width="100" height="100" stroke="none"/>
        <rect x="0.5" y="0.5" width="99" height="99" fill="none"/>
      </g>
      <g id="Rectangle_46-5" data-name="Rectangle 46" transform="translate(220 48)" fill="#fff" stroke="#707070" stroke-width="1">
        <rect width="100" height="100" stroke="none"/>
        <rect x="0.5" y="0.5" width="99" height="99" fill="none"/>
      </g>
      <g id="Rectangle_47-5" data-name="Rectangle 47" transform="translate(320 48)" fill="#fff" stroke="#707070" stroke-width="1">
        <rect width="100" height="100" stroke="none"/>
        <rect x="0.5" y="0.5" width="99" height="99" fill="none"/>
      </g>
      <g id="Rectangle_48-5" data-name="Rectangle 48" transform="translate(420 48)" fill="#e7e6e6" stroke="#707070" stroke-width="1">
        <rect width="100" height="100" stroke="none"/>
        <rect x="0.5" y="0.5" width="99" height="99" fill="none"/>
      </g>
      <g id="Rectangle_49-5" data-name="Rectangle 49" transform="translate(520 48)" fill="#fff" stroke="#707070" stroke-width="1">
        <rect width="100" height="100" stroke="none"/>
        <rect x="0.5" y="0.5" width="99" height="99" fill="none"/>
      </g>
    </g>
    <g id="Group_23" data-name="Group 23" transform="translate(0 500)">
      <g id="Rectangle_43-6" data-name="Rectangle 43" transform="translate(20 48)" fill="#fff" stroke="#707070" stroke-width="1">
        <rect width="100" height="100" stroke="none"/>
        <rect x="0.5" y="0.5" width="99" height="99" fill="none"/>
      </g>
      <g id="Rectangle_45-6" data-name="Rectangle 45" transform="translate(120 48)" fill="#fff" stroke="#707070" stroke-width="1">
        <rect width="100" height="100" stroke="none"/>
        <rect x="0.5" y="0.5" width="99" height="99" fill="none"/>
      </g>
      <g id="Rectangle_46-6" data-name="Rectangle 46" transform="translate(220 48)" fill="#92d050" stroke="#707070" stroke-width="1">
        <rect width="100" height="100" stroke="none"/>
        <rect x="0.5" y="0.5" width="99" height="99" fill="none"/>
      </g>
      <g id="Rectangle_47-6" data-name="Rectangle 47" transform="translate(320 48)" fill="#92d050" stroke="#707070" stroke-width="1">
        <rect width="100" height="100" stroke="none"/>
        <rect x="0.5" y="0.5" width="99" height="99" fill="none"/>
      </g>
      <g id="Rectangle_48-6" data-name="Rectangle 48" transform="translate(420 48)" fill="#fff" stroke="#707070" stroke-width="1">
        <rect width="100" height="100" stroke="none"/>
        <rect x="0.5" y="0.5" width="99" height="99" fill="none"/>
      </g>
      <g id="Rectangle_49-6" data-name="Rectangle 49" transform="translate(520 48)" fill="#fff" stroke="#707070" stroke-width="1">
        <rect width="100" height="100" stroke="none"/>
        <rect x="0.5" y="0.5" width="99" height="99" fill="none"/>
      </g>
      <text id="S1" transform="translate(259 107)" fill="#707070" font-size="30" font-family="SegoeUI-Semibold, Segoe UI" font-weight="600"><tspan x="0" y="0">S</tspan><tspan y="0" font-size="17.499" baseline-shift="-9.999000313881634">1</tspan></text>
      <text id="S2" transform="translate(359 107)" fill="#707070" font-size="30" font-family="SegoeUI-Semibold, Segoe UI" font-weight="600"><tspan x="0" y="0">S</tspan><tspan y="0" font-size="17.499" baseline-shift="-9.999000313881634">2</tspan></text>
    </g>
    <text id="P" transform="translate(161 180)" fill="#707070" font-size="30" font-family="SegoeUI-Semibold, Segoe UI" font-weight="600"><tspan x="0" y="0">P</tspan></text>
    <text id="D4" transform="translate(356 407)" fill="#707070" font-size="30" font-family="SegoeUI-Semibold, Segoe UI" font-weight="600"><tspan x="0" y="0">D</tspan><tspan y="0" font-size="17.499" baseline-shift="-9.999000313881634">4</tspan></text>
    <text id="D2" transform="translate(356 307)" fill="#707070" font-size="30" font-family="SegoeUI-Semibold, Segoe UI" font-weight="600"><tspan x="0" y="0">D</tspan><tspan y="0" font-size="17.499" baseline-shift="-9.999000313881634">2</tspan></text>
    <text id="D1" transform="translate(259 307)" fill="#707070" font-size="30" font-family="SegoeUI-Semibold, Segoe UI" font-weight="600"><tspan x="0" y="0">D</tspan><tspan y="0" font-size="17.499" baseline-shift="-9.999000313881634">1</tspan></text>
    <text id="P-2" data-name="P" transform="translate(459 179)" fill="#707070" font-size="30" font-family="SegoeUI-Semibold, Segoe UI" font-weight="600"><tspan x="0" y="0">P</tspan></text>
    <text id="P-3" data-name="P" transform="translate(161 280)" fill="#707070" font-size="30" font-family="SegoeUI-Semibold, Segoe UI" font-weight="600"><tspan x="0" y="0">P</tspan></text>
    <text id="P-4" data-name="P" transform="translate(459 280)" fill="#707070" font-size="30" font-family="SegoeUI-Semibold, Segoe UI" font-weight="600"><tspan x="0" y="0">P</tspan></text>
    <text id="P-5" data-name="P" transform="translate(161 380)" fill="#707070" font-size="30" font-family="SegoeUI-Semibold, Segoe UI" font-weight="600"><tspan x="0" y="0">P</tspan></text>
    <text id="P-6" data-name="P" transform="translate(459 381)" fill="#707070" font-size="30" font-family="SegoeUI-Semibold, Segoe UI" font-weight="600"><tspan x="0" y="0">P</tspan></text>
    <text id="P-7" data-name="P" transform="translate(161 480)" fill="#707070" font-size="30" font-family="SegoeUI-Semibold, Segoe UI" font-weight="600"><tspan x="0" y="0">P</tspan></text>
    <text id="P-8" data-name="P" transform="translate(459 481)" fill="#707070" font-size="30" font-family="SegoeUI-Semibold, Segoe UI" font-weight="600"><tspan x="0" y="0">P</tspan></text>
    <text id="D3-2" data-name="D3" transform="translate(259 407)" fill="#707070" font-size="30" font-family="SegoeUI-Semibold, Segoe UI" font-weight="600"><tspan x="0" y="0">D</tspan><tspan y="0" font-size="17.499" baseline-shift="-9.999000313881634">3</tspan></text>
    <text id="_1_2" data-name="1,2" transform="translate(152 221)" fill="#707070" font-size="30" font-family="SegoeUI-Semibold, Segoe UI" font-weight="600"><tspan x="0" y="0">1,2</tspan></text>
    <text id="_2" data-name="2" transform="translate(459 221)" fill="#707070" font-size="30" font-family="SegoeUI-Semibold, Segoe UI" font-weight="600"><tspan x="0" y="0">2</tspan></text>
    <text id="_2-2" data-name="2" transform="translate(460 326)" fill="#707070" font-size="30" font-family="SegoeUI-Semibold, Segoe UI" font-weight="600"><tspan x="0" y="0">2</tspan></text>
    <text id="_2-3" data-name="2" transform="translate(460 427)" fill="#707070" font-size="30" font-family="SegoeUI-Semibold, Segoe UI" font-weight="600"><tspan x="0" y="0">2</tspan></text>
    <text id="_1" data-name="1" transform="translate(161 326)" fill="#707070" font-size="30" font-family="SegoeUI-Semibold, Segoe UI" font-weight="600"><tspan x="0" y="0">1</tspan></text>
    <text id="_1-2" data-name="1" transform="translate(161 426)" fill="#707070" font-size="30" font-family="SegoeUI-Semibold, Segoe UI" font-weight="600"><tspan x="0" y="0">1</tspan></text>
    <text id="_1-3" data-name="1" transform="translate(161 526)" fill="#707070" font-size="30" font-family="SegoeUI-Semibold, Segoe UI" font-weight="600"><tspan x="0" y="0">1</tspan></text>
    <g id="Component_10_1" data-name="Component 10 – 1" transform="translate(20 707)">
      <g id="Rectangle_27" data-name="Rectangle 27" transform="translate(0 1)" fill="#fff" stroke="#707070" stroke-width="1">
        <rect width="600" height="141" stroke="none"/>
        <rect x="0.5" y="0.5" width="599" height="140" fill="none"/>
      </g>
      <g id="Rectangle_50" data-name="Rectangle 50" transform="translate(0 1)" fill="#fff" stroke="#707070" stroke-width="1">
        <rect width="47" height="20" stroke="none"/>
        <rect x="0.5" y="0.5" width="46" height="19" fill="none"/>
      </g>
      <g id="Rectangle_51" data-name="Rectangle 51" transform="translate(46 1)" fill="#fff" stroke="#707070" stroke-width="1">
        <rect width="266" height="20" stroke="none"/>
        <rect x="0.5" y="0.5" width="265" height="19" fill="none"/>
      </g>
      <text id="ID" transform="translate(3 16)" fill="#707070" font-size="15" font-family="SegoeUI-Semibold, Segoe UI" font-weight="600"><tspan x="0" y="0">ID</tspan></text>
      <text id="Item_name" data-name="Item name" transform="translate(51 16)" fill="#707070" font-size="15" font-family="SegoeUI-Semibold, Segoe UI" font-weight="600"><tspan x="0" y="0">Item name</tspan></text>
      <g id="Rectangle_53" data-name="Rectangle 53" transform="translate(0 20)" fill="#fff" stroke="#707070" stroke-width="1">
        <rect width="47" height="20" stroke="none"/>
        <rect x="0.5" y="0.5" width="46" height="19" fill="none"/>
      </g>
      <g id="Rectangle_54" data-name="Rectangle 54" transform="translate(46 20)" fill="#fff" stroke="#707070" stroke-width="1">
        <rect width="266" height="20" stroke="none"/>
        <rect x="0.5" y="0.5" width="265" height="19" fill="none"/>
      </g>
      <g id="Rectangle_56" data-name="Rectangle 56" transform="translate(0 39)" fill="#fff" stroke="#707070" stroke-width="1">
        <rect width="47" height="20" stroke="none"/>
        <rect x="0.5" y="0.5" width="46" height="19" fill="none"/>
      </g>
      <g id="Rectangle_57" data-name="Rectangle 57" transform="translate(46 39)" fill="#fff" stroke="#707070" stroke-width="1">
        <rect width="266" height="20" stroke="none"/>
        <rect x="0.5" y="0.5" width="265" height="19" fill="none"/>
      </g>
      <text id="_1-4" data-name="1" transform="translate(3 35)" fill="#707070" font-size="15" font-family="SegoeUI-Semibold, Segoe UI" font-weight="600"><tspan x="0" y="0">1</tspan></text>
      <text id="Apple_AirPods_Pro" data-name="Apple AirPods Pro" transform="translate(51 35)" fill="#707070" font-size="15" font-family="SegoeUI-Semibold, Segoe UI" font-weight="600"><tspan x="0" y="0">Apple AirPods Pro</tspan></text>
      <text id="_2-4" data-name="2" transform="translate(3 54)" fill="#707070" font-size="15" font-family="SegoeUI-Semibold, Segoe UI" font-weight="600"><tspan x="0" y="0">2</tspan></text>
      <text id="Clown_mask" data-name="Clown mask" transform="translate(51 54)" fill="#707070" font-size="15" font-family="SegoeUI-Semibold, Segoe UI" font-weight="600"><tspan x="0" y="0">Clown mask</tspan></text>
      <g id="Rectangle_65" data-name="Rectangle 65" transform="translate(311 1)" fill="rgba(231,230,230,0)" stroke="#707070" stroke-width="1">
        <rect width="289" height="20" stroke="none"/>
        <rect x="0.5" y="0.5" width="288" height="19" fill="none"/>
      </g>
      <g id="Rectangle_66" data-name="Rectangle 66" transform="translate(311 20)" fill="rgba(231,230,230,0)" stroke="#707070" stroke-width="1">
        <rect width="289" height="20" stroke="none"/>
        <rect x="0.5" y="0.5" width="288" height="19" fill="none"/>
      </g>
      <g id="Rectangle_67" data-name="Rectangle 67" transform="translate(311 39)" fill="rgba(231,230,230,0)" stroke="#707070" stroke-width="1">
        <rect width="289" height="20" stroke="none"/>
        <rect x="0.5" y="0.5" width="288" height="19" fill="none"/>
      </g>
      <g id="Rectangle_69" data-name="Rectangle 69" transform="translate(433 22)" fill="#e7e6e6" stroke="#707070" stroke-width="1">
        <rect width="165" height="16" stroke="none"/>
        <rect x="0.5" y="0.5" width="164" height="15" fill="none"/>
      </g>
      <text id="Remove_from_selected" data-name="Remove from selected" transform="translate(515 35)" fill="#707070" font-size="12" font-family="SegoeUI-Semibold, Segoe UI" font-weight="600"><tspan x="-60.565" y="0">Remove from selected</tspan></text>
      <text id="Actions" transform="translate(316 17)" fill="#707070" font-size="15" font-family="SegoeUI-Semibold, Segoe UI" font-weight="600"><tspan x="0" y="0">Actions</tspan></text>
      <g id="Rectangle_77" data-name="Rectangle 77" transform="translate(313 22)" fill="#e7e6e6" stroke="#707070" stroke-width="1">
        <rect width="119" height="16" stroke="none"/>
        <rect x="0.5" y="0.5" width="118" height="15" fill="none"/>
      </g>
      <text id="Add_to_selected" data-name="Add to selected" transform="translate(373 35)" fill="#707070" font-size="12" font-family="SegoeUI-Semibold, Segoe UI" font-weight="600"><tspan x="-42.56" y="0">Add to selected</tspan></text>
      <g id="Rectangle_78" data-name="Rectangle 78" transform="translate(313 41)" fill="#e7e6e6" stroke="#707070" stroke-width="1">
        <rect width="119" height="16" stroke="none"/>
        <rect x="0.5" y="0.5" width="118" height="15" fill="none"/>
      </g>
      <text id="Add_to_selected-2" data-name="Add to selected" transform="translate(373 54)" fill="#707070" font-size="12" font-family="SegoeUI-Semibold, Segoe UI" font-weight="600"><tspan x="-42.56" y="0">Add to selected</tspan></text>
      <g id="Rectangle_79" data-name="Rectangle 79" transform="translate(433 41)" fill="#e7e6e6" stroke="#707070" stroke-width="1">
        <rect width="165" height="16" stroke="none"/>
        <rect x="0.5" y="0.5" width="164" height="15" fill="none"/>
      </g>
      <text id="Remove_from_selected-2" data-name="Remove from selected" transform="translate(515 54)" fill="#707070" font-size="12" font-family="SegoeUI-Semibold, Segoe UI" font-weight="600"><tspan x="-60.565" y="0">Remove from selected</tspan></text>
    </g>
    <g id="Component_9_1" data-name="Component 9 – 1" transform="translate(378 663)">
      <g id="Rectangle_59" data-name="Rectangle 59" fill="#fff" stroke="#707070" stroke-width="1">
        <rect width="32" height="32" stroke="none"/>
        <rect x="0.5" y="0.5" width="31" height="31" fill="none"/>
      </g>
      <g id="Rectangle_60" data-name="Rectangle 60" transform="translate(31)" fill="#fff" stroke="#707070" stroke-width="1">
        <rect width="32" height="16" stroke="none"/>
        <rect x="0.5" y="0.5" width="31" height="15" fill="none"/>
      </g>
      <g id="Rectangle_61" data-name="Rectangle 61" transform="translate(31 16)" fill="#fff" stroke="#707070" stroke-width="1">
        <rect width="32" height="16" stroke="none"/>
        <rect x="0.5" y="0.5" width="31" height="15" fill="none"/>
      </g>
      <g id="Polygon_5" data-name="Polygon 5" transform="translate(42 4)" fill="#fff">
        <path d="M 9.097874641418457 7.5 L 0.9021250009536743 7.5 L 5 0.9434000253677368 L 9.097874641418457 7.5 Z" stroke="none"/>
        <path d="M 5 1.886799812316895 L 1.80424976348877 7 L 8.19575023651123 7 L 5 1.886799812316895 M 5 0 L 10 8 L 0 8 L 5 0 Z" stroke="none" fill="#707070"/>
      </g>
      <g id="Polygon_6" data-name="Polygon 6" transform="translate(52 28) rotate(180)" fill="#fff">
        <path d="M 9.097874641418457 7.5 L 0.9021250009536743 7.5 L 5 0.9434000253677368 L 9.097874641418457 7.5 Z" stroke="none"/>
        <path d="M 5 1.886799812316895 L 1.80424976348877 7 L 8.19575023651123 7 L 5 1.886799812316895 M 5 0 L 10 8 L 0 8 L 5 0 Z" stroke="none" fill="#707070"/>
      </g>
      <text id="_6" data-name="6" transform="translate(12 22)" fill="#707070" font-size="15" font-family="SegoeUI-Semibold, Segoe UI" font-weight="600"><tspan x="0" y="0">6</tspan></text>
    </g>
    <g id="Component_8_1" data-name="Component 8 – 1" transform="translate(456 663)">
      <g id="Rectangle_62" data-name="Rectangle 62" fill="#fff" stroke="#707070" stroke-width="1">
        <rect width="32" height="32" stroke="none"/>
        <rect x="0.5" y="0.5" width="31" height="31" fill="none"/>
      </g>
      <g id="Rectangle_63" data-name="Rectangle 63" transform="translate(31)" fill="#fff" stroke="#707070" stroke-width="1">
        <rect width="32" height="16" stroke="none"/>
        <rect x="0.5" y="0.5" width="31" height="15" fill="none"/>
      </g>
      <g id="Rectangle_64" data-name="Rectangle 64" transform="translate(31 16)" fill="#fff" stroke="#707070" stroke-width="1">
        <rect width="32" height="16" stroke="none"/>
        <rect x="0.5" y="0.5" width="31" height="15" fill="none"/>
      </g>
      <text id="_6-2" data-name="6" transform="translate(12 22)" fill="#707070" font-size="15" font-family="SegoeUI-Semibold, Segoe UI" font-weight="600"><tspan x="0" y="0">6</tspan></text>
      <g id="Polygon_7" data-name="Polygon 7" transform="translate(42 4)" fill="#fff">
        <path d="M 9.097874641418457 7.5 L 0.9021250009536743 7.5 L 5 0.9434000253677368 L 9.097874641418457 7.5 Z" stroke="none"/>
        <path d="M 5 1.886799812316895 L 1.80424976348877 7 L 8.19575023651123 7 L 5 1.886799812316895 M 5 0 L 10 8 L 0 8 L 5 0 Z" stroke="none" fill="#707070"/>
      </g>
      <g id="Polygon_8" data-name="Polygon 8" transform="translate(52 28) rotate(180)" fill="#fff">
        <path d="M 9.097874641418457 7.5 L 0.9021250009536743 7.5 L 5 0.9434000253677368 L 9.097874641418457 7.5 Z" stroke="none"/>
        <path d="M 5 1.886799812316895 L 1.80424976348877 7 L 8.19575023651123 7 L 5 1.886799812316895 M 5 0 L 10 8 L 0 8 L 5 0 Z" stroke="none" fill="#707070"/>
      </g>
    </g>
    <text id="x" transform="translate(445 684)" fill="#707070" font-size="15" font-family="SegoeUI-Semibold, Segoe UI" font-weight="600"><tspan x="0" y="0">x</tspan></text>
    <g id="Component_5_5" data-name="Component 5 – 5" transform="translate(321 863)">
      <g id="Rectangle_7" data-name="Rectangle 7" fill="#fff" stroke="#707070" stroke-width="1">
        <rect width="80" height="25" stroke="none"/>
        <rect x="0.5" y="0.5" width="79" height="24" fill="none"/>
      </g>
      <text id="Load" transform="translate(40 18)" fill="#707070" font-size="15" font-family="SegoeUI-Semibold, Segoe UI" font-weight="600"><tspan x="-16.49" y="0">Load</tspan></text>
    </g>
    <g id="Component_6_5" data-name="Component 6 – 5" transform="translate(416 863)">
      <g id="Rectangle_8" data-name="Rectangle 8" fill="#fff" stroke="#707070" stroke-width="1">
        <rect width="80" height="25" stroke="none"/>
        <rect x="0.5" y="0.5" width="79" height="24" fill="none"/>
      </g>
      <text id="Save" transform="translate(40 18)" fill="#707070" font-size="15" font-family="SegoeUI-Semibold, Segoe UI" font-weight="600"><tspan x="-15.729" y="0">Save</tspan></text>
    </g>
    <g id="Component_6_6" data-name="Component 6 – 6" transform="translate(511 863)">
      <g id="Rectangle_8-2" data-name="Rectangle 8" fill="#fff" stroke="#707070" stroke-width="1">
        <rect width="109" height="25" stroke="none"/>
        <rect x="0.5" y="0.5" width="108" height="24" fill="none"/>
      </g>
      <text id="Apply_close" data-name="Apply &amp; close" transform="translate(55 18)" fill="#707070" font-size="15" font-family="SegoeUI-Semibold, Segoe UI" font-weight="600"><tspan x="-46.516" y="0">Apply &amp; close</tspan></text>
    </g>
    <g id="Rectangle_71" data-name="Rectangle 71" transform="translate(302 662)" fill="#fff" stroke="#707070" stroke-width="1">
      <rect width="32" height="32" stroke="none"/>
      <rect x="0.5" y="0.5" width="31" height="31" fill="none"/>
    </g>
    <g id="Rectangle_72" data-name="Rectangle 72" transform="translate(311 671)" fill="#fff" stroke="#707070" stroke-width="1">
      <rect width="15" height="19" stroke="none"/>
      <rect x="0.5" y="0.5" width="14" height="18" fill="none"/>
    </g>
    <g id="Rectangle_73" data-name="Rectangle 73" transform="translate(311 668)" fill="#fff" stroke="#707070" stroke-width="1">
      <rect width="15" height="4" stroke="none"/>
      <rect x="0.5" y="0.5" width="14" height="3" fill="none"/>
    </g>
    <g id="Rectangle_74" data-name="Rectangle 74" transform="translate(316 666)" fill="#fff" stroke="#707070" stroke-width="1">
      <rect width="5" height="2" stroke="none"/>
      <rect x="0.5" y="0.5" width="4" height="1" fill="none"/>
    </g>
    <g id="Rectangle_75" data-name="Rectangle 75" transform="translate(313 671)" fill="#fff" stroke="#707070" stroke-width="1">
      <rect width="4" height="19" stroke="none"/>
      <rect x="0.5" y="0.5" width="3" height="18" fill="none"/>
    </g>
    <g id="Rectangle_76" data-name="Rectangle 76" transform="translate(320 671)" fill="#fff" stroke="#707070" stroke-width="1">
      <rect width="4" height="19" stroke="none"/>
      <rect x="0.5" y="0.5" width="3" height="18" fill="none"/>
    </g>
    <g id="Component_5_6" data-name="Component 5 – 6" transform="translate(21 863)">
      <g id="Rectangle_7-2" data-name="Rectangle 7" fill="#fff" stroke="#707070" stroke-width="1">
        <rect width="80" height="25" stroke="none"/>
        <rect x="0.5" y="0.5" width="79" height="24" fill="none"/>
      </g>
      <text id="Reset" transform="translate(40 18)" fill="#707070" font-size="15" font-family="SegoeUI-Semibold, Segoe UI" font-weight="600"><tspan x="-18.384" y="0">Reset</tspan></text>
    </g>
  </g>
</svg>
