<svg xmlns="http://www.w3.org/2000/svg" xmlns:xlink="http://www.w3.org/1999/xlink" width="637" height="868" viewBox="0 0 637 868"><defs><clipPath id="b"><rect width="637" height="868"/></clipPath></defs><g id="a" clip-path="url(#b)"><rect width="637" height="868" fill="#fff"/><g transform="translate(0 32)" fill="#fff" stroke="#707070" stroke-width="1"><rect width="637" height="836" stroke="none"/><rect x="0.5" y="0.5" width="636" height="835" fill="none"/></g><g fill="#fff" stroke="#707070" stroke-width="1"><rect width="637" height="33" stroke="none"/><rect x="0.5" y="0.5" width="636" height="32" fill="none"/></g><g transform="translate(20 47)" fill="#fff" stroke="#707070" stroke-width="1"><rect width="600" height="600" stroke="none"/><rect x="0.5" y="0.5" width="599" height="599" fill="none"/></g><g transform="translate(605 4)"><g fill="rgba(112,112,112,0)" stroke="#707070" stroke-width="1"><circle cx="12.5" cy="12.5" r="12.5" stroke="none"/><circle cx="12.5" cy="12.5" r="12" fill="none"/></g><line y1="12" x2="12" transform="translate(6.5 6.5)" fill="none" stroke="#707070" stroke-width="1"/><line x2="12" y2="12" transform="translate(6.5 6.5)" fill="none" stroke="#707070" stroke-width="1"/></g><g transform="translate(575 4)"><g fill="#707070" stroke="#707070" stroke-width="1"><circle cx="12.5" cy="12.5" r="12.5" stroke="none"/><circle cx="12.5" cy="12.5" r="12" fill="none"/></g><g transform="translate(9 5)" fill="#fff" stroke="#707070" stroke-width="1"><rect width="11" height="11" stroke="none"/><rect x="0.5" y="0.5" width="10" height="10" fill="none"/></g><g transform="translate(5 9)" fill="#fff" stroke="#707070" stroke-width="1"><rect width="11" height="11" stroke="none"/><rect x="0.5" y="0.5" width="10" height="10" fill="none"/></g></g><g transform="translate(545 4)"><g fill="#707070" stroke="#707070" stroke-width="1"><circle cx="12.5" cy="12.5" r="12.5" stroke="none"/><circle cx="12.5" cy="12.5" r="12" fill="none"/></g><line x2="16" transform="translate(4.5 17.5)" fill="none" stroke="#fff" stroke-width="1"/></g><g transform="translate(20 662)" fill="#fff" stroke="#707070" stroke-width="1"><rect width="32" height="32" stroke="none"/><rect x="0.5" y="0.5" width="31" height="31" fill="none"/></g><g transform="translate(67 662)" fill="#fff" stroke="#707070" stroke-width="1"><rect width="32" height="32" stroke="none"/><rect x="0.5" y="0.5" width="31" height="31" fill="none"/></g><g transform="translate(161 662)" fill="#fff" stroke="#707070" stroke-width="1"><rect width="32" height="32" stroke="none"/><rect x="0.5" y="0.5" width="31" height="31" fill="none"/></g><g transform="translate(-1271.029 -388.519) rotate(13)"><g transform="translate(1499.747 742.884) rotate(-45)" fill="#9a9a9a"><path d="M 13.33446407318115 13.64347839355469 L 0.8090142011642456 13.64347839355469 L 7.071739196777344 1.118028283119202 L 13.33446407318115 13.64347839355469 Z" stroke="none"/><path d="M 7.071739196777344 2.236067771911621 L 1.618034362792969 13.14347839355469 L 12.52544403076172 13.14347839355469 L 7.071739196777344 2.236067771911621 M 7.071739196777344 -1.9073486328125e-06 L 14.143479347229 14.14347839355469 L -9.5367431640625e-07 14.14347839355469 L 7.071739196777344 -1.9073486328125e-06 Z" stroke="none" fill="#9a9a9a"/></g><g transform="translate(1513.218 748.884) rotate(-45)" fill="#9a9a9a" stroke="#9a9a9a" stroke-width="1"><rect width="3.722" height="8.188" stroke="none"/><rect x="0.5" y="0.5" width="2.722" height="7.188" fill="none"/></g></g><g transform="translate(114 662)" fill="#fff" stroke="#707070" stroke-width="1"><rect width="32" height="32" stroke="none"/><rect x="0.5" y="0.5" width="31" height="31" fill="none"/></g><g transform="translate(-1482 -68)"><g transform="translate(1605 739)" fill="#fff" stroke="#707070" stroke-width="1"><rect width="14" height="6" stroke="none"/><rect x="0.5" y="0.5" width="13" height="5" fill="none"/></g><g transform="translate(1605 744)" fill="#fff" stroke="#707070" stroke-width="1"><rect width="14" height="6" stroke="none"/><rect x="0.5" y="0.5" width="13" height="5" fill="none"/></g><line y2="4" transform="translate(1605.5 749.5)" fill="none" stroke="#707070" stroke-width="1"/><line y2="4" transform="translate(1618.5 749.5)" fill="none" stroke="#707070" stroke-width="1"/></g><g transform="translate(-1482 -72)"><line y2="16" transform="translate(1655.5 742.5)" fill="none" stroke="#707070" stroke-width="1"/><path d="M4,0,8,9H0Z" transform="translate(1664.5 742.5) rotate(90)" fill="#fff" stroke="#707070" stroke-width="1"/></g><g transform="translate(208 662)" fill="#fff" stroke="#707070" stroke-width="1"><rect width="32" height="32" stroke="none"/><rect x="0.5" y="0.5" width="31" height="31" fill="none"/></g><g transform="translate(-1482.906 -73)"><g transform="translate(1699.906 745)" fill="#fff" stroke="#707070" stroke-width="1"><rect width="14" height="15" stroke="none"/><rect x="0.5" y="0.5" width="13" height="14" fill="none"/></g><g transform="translate(1703.906 743)" fill="#fff" stroke="#707070" stroke-width="1"><rect width="6" height="3" stroke="none"/><rect x="0.5" y="0.5" width="5" height="2" fill="none"/></g></g><g transform="translate(-1482 -70)"><g transform="translate(0 4)"><g transform="translate(1553 741)" fill="#fff" stroke="#707070" stroke-width="1"><rect width="24" height="13" stroke="none"/><rect x="0.5" y="0.5" width="23" height="12" fill="none"/></g><g transform="translate(1558 745)" fill="#fff" stroke="#707070" stroke-width="1"><circle cx="2" cy="2" r="2" stroke="none"/><circle cx="2" cy="2" r="1.5" fill="none"/></g><g transform="translate(1568 745)" fill="#fff" stroke="#707070" stroke-width="1"><circle cx="2" cy="2" r="2" stroke="none"/><circle cx="2" cy="2" r="1.5" fill="none"/></g><path d="M0,0A8.293,8.293,0,0,0,3.406.881,9.749,9.749,0,0,0,7,0" transform="translate(1561.5 750.5)" fill="none" stroke="#707070" stroke-width="1"/></g><line y1="5" transform="translate(1565 740)" fill="none" stroke="#707070" stroke-linecap="square" stroke-width="1"/><g transform="translate(1563.5 738)" fill="#fff" stroke="#707070" stroke-width="1"><circle cx="1.5" cy="1.5" r="1.5" stroke="none"/><circle cx="1.5" cy="1.5" r="1" fill="none"/></g></g><g transform="translate(255 662)" fill="#fff" stroke="#707070" stroke-width="1"><rect width="32" height="32" stroke="none"/><rect x="0.5" y="0.5" width="31" height="31" fill="none"/></g><g transform="translate(-1481 -74)"><g transform="translate(1749 741)" fill="#fff" stroke="#707070" stroke-width="1"><rect width="10" height="10" stroke="none"/><rect x="0.5" y="0.5" width="9" height="9" fill="none"/></g><g transform="translate(1740 747)" fill="#fff"><path d="M 11.19098472595215 11.5 L 0.8090149760246277 11.5 L 6 1.118029952049255 L 11.19098472595215 11.5 Z" stroke="none"/><path d="M 6 2.236069679260254 L 1.618035316467285 11 L 10.38196468353271 11 L 6 2.236069679260254 M 6 0 L 12 12 L 0 12 L 6 0 Z" stroke="none" fill="#707070"/></g><g transform="translate(1753 752)" fill="#fff" stroke="#707070" stroke-width="1"><circle cx="6" cy="6" r="6" stroke="none"/><circle cx="6" cy="6" r="5.5" fill="none"/></g></g><line x2="13" transform="translate(217.5 675.5)" fill="none" stroke="#707070" stroke-width="1"/><line y2="6" transform="translate(224 678)" fill="none" stroke="#707070" stroke-width="1"/><line x2="6" transform="translate(221 681)" fill="none" stroke="#707070" stroke-width="1"/><g transform="translate(20 709)" fill="#fff" stroke="#707070" stroke-width="1"><rect width="600" height="141" stroke="none"/><rect x="0.5" y="0.5" width="599" height="140" fill="none"/></g><g transform="translate(541 662)" fill="#fff" stroke="#707070" stroke-width="1"><rect width="32" height="32" stroke="none"/><rect x="0.5" y="0.5" width="31" height="31" fill="none"/></g><g transform="translate(-1240 -166)"><path d="M1796.7,853.331s11.012-9.488,8.8-15.1-9.7-4.294-13.436-.762" fill="none" stroke="#707070" stroke-width="1"/><g transform="matrix(-0.695, -0.719, 0.719, -0.695, 1788.359, 844.577)" fill="#fff"><path d="M 4.31990385055542 7.5 L 0.6800962686538696 7.5 L 2.5 1.676308035850525 L 4.31990385055542 7.5 Z" stroke="none"/><path d="M 2.5 3.352605819702148 L 1.360189437866211 7 L 3.639810562133789 7 L 2.5 3.352605819702148 M 2.5 0 L 5 8 L 0 8 L 2.5 0 Z" stroke="none" fill="#707070"/></g></g><g transform="translate(-1240 -166)"><path d="M1796.7,853.331s11.012-9.488,8.8-15.1-9.7-4.294-13.436-.762" fill="none" stroke="#707070" stroke-width="1"/><g transform="matrix(-0.695, -0.719, 0.719, -0.695, 1788.359, 844.577)" fill="#707070"><path d="M 4.31990385055542 7.5 L 0.6800962686538696 7.5 L 2.5 1.676308035850525 L 4.31990385055542 7.5 Z" stroke="none"/><path d="M 2.5 3.352605819702148 L 1.360189437866211 7 L 3.639810562133789 7 L 2.5 3.352605819702148 M 2.5 0 L 5 8 L 0 8 L 2.5 0 Z" stroke="none" fill="#707070"/></g></g><g transform="translate(588 662)" fill="#fff" stroke="#707070" stroke-width="1"><rect width="32" height="32" stroke="none"/><rect x="0.5" y="0.5" width="31" height="31" fill="none"/></g><g transform="translate(594.886 668.42)"><path d="M1801.147,853.331s-11.012-9.488-8.8-15.1,9.7-4.294,13.436-.762" transform="translate(-1792.057 -834.42)" fill="none" stroke="#707070" stroke-width="1"/><g transform="matrix(-0.695, 0.719, -0.719, -0.695, 20.902, 6.56)" fill="#707070"><path d="M 4.31990385055542 7.5 L 0.6800965070724487 7.5 L 2.500000238418579 1.676308035850525 L 4.31990385055542 7.5 Z" stroke="none"/><path d="M 2.500000238418579 3.352605819702148 L 1.36018967628479 7 L 3.639811038970947 7 L 2.500000238418579 3.352605819702148 M 2.500000238418579 0 L 5 8 L 4.76837158203125e-07 8 L 2.500000238418579 0 Z" stroke="none" fill="#707070"/></g></g><text transform="translate(11 23)" fill="#707070" font-size="15" font-family="SegoeUI-Semibold, Segoe UI" font-weight="600"><tspan x="0" y="0">Editor</tspan></text></g></svg>