<svg xmlns="http://www.w3.org/2000/svg" xmlns:xlink="http://www.w3.org/1999/xlink" width="820" height="662" viewBox="0 0 820 662"><defs><clipPath id="b"><rect width="820" height="662"/></clipPath></defs><g id="a" clip-path="url(#b)"><rect width="820" height="662" fill="#fff"/><g transform="translate(0 32)" fill="#fff" stroke="#707070" stroke-width="1"><rect width="820" height="630" stroke="none"/><rect x="0.5" y="0.5" width="819" height="629" fill="none"/></g><g fill="#fff" stroke="#707070" stroke-width="1"><rect width="820" height="33" stroke="none"/><rect x="0.5" y="0.5" width="819" height="32" fill="none"/></g><g transform="translate(205 47)" fill="#fff" stroke="#707070" stroke-width="1"><rect width="600" height="600" stroke="none"/><rect x="0.5" y="0.5" width="599" height="599" fill="none"/></g><g transform="translate(790 4)"><g fill="rgba(112,112,112,0)" stroke="#707070" stroke-width="1"><circle cx="12.5" cy="12.5" r="12.5" stroke="none"/><circle cx="12.5" cy="12.5" r="12" fill="none"/></g><line y1="12" x2="12" transform="translate(6.5 6.5)" fill="none" stroke="#707070" stroke-width="1"/><line x2="12" y2="12" transform="translate(6.5 6.5)" fill="none" stroke="#707070" stroke-width="1"/></g><g transform="translate(760 4)"><g fill="#707070" stroke="#707070" stroke-width="1"><circle cx="12.5" cy="12.5" r="12.5" stroke="none"/><circle cx="12.5" cy="12.5" r="12" fill="none"/></g><g transform="translate(9 5)" fill="#fff" stroke="#707070" stroke-width="1"><rect width="11" height="11" stroke="none"/><rect x="0.5" y="0.5" width="10" height="10" fill="none"/></g><g transform="translate(5 9)" fill="#fff" stroke="#707070" stroke-width="1"><rect width="11" height="11" stroke="none"/><rect x="0.5" y="0.5" width="10" height="10" fill="none"/></g></g><g transform="translate(730 4)"><g fill="#707070" stroke="#707070" stroke-width="1"><circle cx="12.5" cy="12.5" r="12.5" stroke="none"/><circle cx="12.5" cy="12.5" r="12" fill="none"/></g><line x2="16" transform="translate(4.5 17.5)" fill="none" stroke="#fff" stroke-width="1"/></g><g transform="translate(15 622)"><g fill="#fff" stroke="#707070" stroke-width="1"><rect width="175" height="25" stroke="none"/><rect x="0.5" y="0.5" width="174" height="24" fill="none"/></g><text transform="translate(72 18)" fill="#707070" font-size="15" font-family="SegoeUI-Semibold, Segoe UI" font-weight="600"><tspan x="0" y="0">Start</tspan></text></g><text transform="translate(14 81)" fill="#707070" font-size="45" font-family="SegoeUI-Semibold, Segoe UI" font-weight="600"><tspan x="0" y="0">Waresim</tspan></text><g transform="translate(15 585)"><g fill="#fff" stroke="#707070" stroke-width="1"><rect width="80" height="25" stroke="none"/><rect x="0.5" y="0.5" width="79" height="24" fill="none"/></g><text transform="translate(40 18)" fill="#707070" font-size="15" font-family="SegoeUI-Semibold, Segoe UI" font-weight="600"><tspan x="-16.49" y="0">Load</tspan></text></g><g transform="translate(110 585)"><g fill="#fff" stroke="#707070" stroke-width="1"><rect width="80" height="25" stroke="none"/><rect x="0.5" y="0.5" width="79" height="24" fill="none"/></g><text transform="translate(40 18)" fill="#707070" font-size="15" font-family="SegoeUI-Semibold, Segoe UI" font-weight="600"><tspan x="-15.729" y="0">Save</tspan></text></g><text transform="translate(420 362)" fill="#707070" font-size="14" font-family="SegoeUI-Semibold, Segoe UI" font-weight="600"><tspan x="0" y="0">No data loaded. Please use</tspan><tspan x="0" y="19">the Load button.</tspan><tspan x="0" y="38"></tspan></text><g transform="translate(0 32)" fill="#fff" stroke="#707070" stroke-width="1"><rect width="820" height="630" stroke="none"/><rect x="0.5" y="0.5" width="819" height="629" fill="none"/></g><g fill="#fff" stroke="#707070" stroke-width="1"><rect width="820" height="33" stroke="none"/><rect x="0.5" y="0.5" width="819" height="32" fill="none"/></g><g transform="translate(205 47)" fill="#fff" stroke="#707070" stroke-width="1"><rect width="600" height="600" stroke="none"/><rect x="0.5" y="0.5" width="599" height="599" fill="none"/></g><g transform="translate(790 4)"><g fill="rgba(112,112,112,0)" stroke="#707070" stroke-width="1"><circle cx="12.5" cy="12.5" r="12.5" stroke="none"/><circle cx="12.5" cy="12.5" r="12" fill="none"/></g><line y1="12" x2="12" transform="translate(6.5 6.5)" fill="none" stroke="#707070" stroke-width="1"/><line x2="12" y2="12" transform="translate(6.5 6.5)" fill="none" stroke="#707070" stroke-width="1"/></g><g transform="translate(760 4)"><g fill="#707070" stroke="#707070" stroke-width="1"><circle cx="12.5" cy="12.5" r="12.5" stroke="none"/><circle cx="12.5" cy="12.5" r="12" fill="none"/></g><g transform="translate(9 5)" fill="#fff" stroke="#707070" stroke-width="1"><rect width="11" height="11" stroke="none"/><rect x="0.5" y="0.5" width="10" height="10" fill="none"/></g><g transform="translate(5 9)" fill="#fff" stroke="#707070" stroke-width="1"><rect width="11" height="11" stroke="none"/><rect x="0.5" y="0.5" width="10" height="10" fill="none"/></g></g><g transform="translate(730 4)"><g fill="#707070" stroke="#707070" stroke-width="1"><circle cx="12.5" cy="12.5" r="12.5" stroke="none"/><circle cx="12.5" cy="12.5" r="12" fill="none"/></g><line x2="16" transform="translate(4.5 17.5)" fill="none" stroke="#fff" stroke-width="1"/></g><g transform="translate(15 622)"><g fill="#fff" stroke="#707070" stroke-width="1"><rect width="175" height="25" stroke="none"/><rect x="0.5" y="0.5" width="174" height="24" fill="none"/></g><text transform="translate(72 18)" fill="#707070" font-size="15" font-family="SegoeUI-Semibold, Segoe UI" font-weight="600"><tspan x="0" y="0">Start</tspan></text></g><text transform="translate(14 81)" fill="#707070" font-size="45" font-family="SegoeUI-Semibold, Segoe UI" font-weight="600"><tspan x="0" y="0">Waresim</tspan></text><g transform="translate(15 542)"><g fill="#fff" stroke="#707070" stroke-width="1"><rect width="80" height="25" stroke="none"/><rect x="0.5" y="0.5" width="79" height="24" fill="none"/></g><text transform="translate(40 18)" fill="#707070" font-size="15" font-family="SegoeUI-Semibold, Segoe UI" font-weight="600"><tspan x="-16.49" y="0">Load</tspan></text></g><g transform="translate(110 542)"><g fill="#fff" stroke="#707070" stroke-width="1"><rect width="80" height="25" stroke="none"/><rect x="0.5" y="0.5" width="79" height="24" fill="none"/></g><text transform="translate(40 18)" fill="#707070" font-size="15" font-family="SegoeUI-Semibold, Segoe UI" font-weight="600"><tspan x="-15.729" y="0">Save</tspan></text></g><text transform="translate(407 334)" fill="#707070" font-size="14" font-family="SegoeUI-Semibold, Segoe UI" font-weight="600"><tspan x="0" y="0">No data loaded. Please use the</tspan><tspan x="0" y="19">Load, or Open editor buttons</tspan><tspan x="0" y="38">to set up the simulation.</tspan></text><g transform="translate(15 582)"><g fill="#fff" stroke="#707070" stroke-width="1"><rect width="175" height="25" stroke="none"/><rect x="0.5" y="0.5" width="174" height="24" fill="none"/></g><text transform="translate(88 18)" fill="#707070" font-size="15" font-family="SegoeUI-Semibold, Segoe UI" font-weight="600"><tspan x="-40.994" y="0">Open editor</tspan></text></g><text transform="translate(14 23)" fill="#707070" font-size="15" font-family="SegoeUI-Semibold, Segoe UI" font-weight="600"><tspan x="0" y="0">Waresim</tspan></text><text transform="translate(14 119)" fill="#707070" font-size="20" font-family="SegoeUI-Semibold, Segoe UI" font-weight="600"><tspan x="0" y="0">Welcome!</tspan></text></g></svg>